<svg id="Layer_1" data-name="Layer 1" xmlns="http://www.w3.org/2000/svg" viewBox="0 0 155 160"><title>Artboard 1</title><path d="M8.95,105.31V108a7.71,7.71,0,0,0,7.7,7.7H76.16V105.31Z" fill="none"/><path d="M76.15,84.91a11.55,11.55,0,0,1,19.55-8.34l21.92,21h28V16.77a7.71,7.71,0,0,0-7.7-7.7H16.65a7.71,7.71,0,0,0-7.7,7.7V97.61h67.2Zm26.57-26.34,3.62-4.8L110,49a3.85,3.85,0,0,1,6.15,4.63l-3.62,4.8-3.62,4.8a3.85,3.85,0,0,1-6.15-4.63Zm-14.45-10a3.85,3.85,0,0,1,7.64.94l-.73,6a3.85,3.85,0,0,1-3.82,3.38l-.48,0a3.85,3.85,0,0,1-3.35-4.29ZM57.85,85.08l-.48,0-6-.73h0l-6-.73a3.85,3.85,0,0,1,.94-7.64l11.94,1.47a3.85,3.85,0,0,1-.46,7.67Zm8.9-16a3.85,3.85,0,0,1-5.39.76l-4.8-3.62a3.85,3.85,0,1,1,4.63-6.15L66,63.73A3.85,3.85,0,0,1,66.75,69.12Zm5.65-10.4-2.35-5.54h0L67.7,47.65a3.85,3.85,0,1,1,7.09-3l4.7,11.07a3.85,3.85,0,1,1-7.09,3Z" fill="none"/><rect x="57.07" y="123.35" width="19.1" height="10.35" fill="none"/><path d="M137.91,115.66a7.71,7.71,0,0,0,7.7-7.7v-2.65h-20l10.78,10.35Z" fill="none"/><path d="M132.2,123.35a3.81,3.81,0,0,0-1.09-2.11l-5.82-5.58-10.78-10.35-8-7.7L90.36,82.12a3.85,3.85,0,0,0-6.51,2.78v56.49h0a3.85,3.85,0,0,0,5.83,3.29l5.5-3.29,4.68-2.8,1.19,2.8,5.87,13.76a3.85,3.85,0,0,0,5.05,2l11.07-4.72a3.85,3.85,0,0,0,2-5.05L118,130.86l11.44-3.13a3.75,3.75,0,0,0,2.74-4.37ZM112.51,148.6l-3.07-7.2-3.28-7.7-.93-2.18,0-.06a3.83,3.83,0,0,0-5.48-1.73l-2.22,1.33-4.42,2.64-1.5.9V93.93l3.83,3.68,8,7.7,10.78,10.35,6.71,6.44-4.6,1.26-4.55,1.25a3.85,3.85,0,0,0-2.52,5.22l1.65,3.88,3.18,7.46,2.45,5.74Z"/><path d="M137.91,1.37H16.65a15.42,15.42,0,0,0-15.4,15.4V108a15.42,15.42,0,0,0,15.4,15.4H49.37V133.7h-7.7a3.85,3.85,0,0,0,0,7.7H76.18V133.7H57.07V123.35h19.1v-7.7H16.65a7.71,7.71,0,0,1-7.7-7.7v-2.65H76.16v-7.7H8.95V16.77a7.71,7.71,0,0,1,7.7-7.7H137.91a7.71,7.71,0,0,1,7.7,7.7V97.61h-28l8,7.7h20V108a7.71,7.71,0,0,1-7.7,7.7h-1.49l0,0a11.3,11.3,0,0,1,3.45,7.47A15.37,15.37,0,0,0,153.3,108V16.77A15.42,15.42,0,0,0,137.91,1.37Z"/><path d="M74.79,44.64a3.85,3.85,0,1,0-7.09,3L70,53.18h0l2.35,5.54a3.85,3.85,0,1,0,7.09-3Z"/><path d="M66.75,69.12A3.85,3.85,0,0,0,66,63.73l-4.8-3.62a3.85,3.85,0,1,0-4.63,6.15l4.8,3.62a3.85,3.85,0,0,0,5.39-.76Z"/><path d="M58.32,77.41,46.37,75.95a3.85,3.85,0,0,0-.94,7.64l6,.73h0l6,.73.48,0a3.85,3.85,0,0,0,.46-7.67Z"/><path d="M110,49l-3.62,4.8-3.62,4.8a3.85,3.85,0,0,0,6.15,4.63l3.62-4.8,3.62-4.8A3.85,3.85,0,0,0,110,49Z"/><path d="M92.56,45.26a3.88,3.88,0,0,0-4.29,3.35l-.73,6a3.85,3.85,0,0,0,3.35,4.29l.48,0a3.85,3.85,0,0,0,3.82-3.38l.73-6A3.85,3.85,0,0,0,92.56,45.26Z"/></svg>