<?xml version="1.0"?>
<svg width="358.4" height="409.6" xmlns="http://www.w3.org/2000/svg" xmlns:svg="http://www.w3.org/2000/svg" xmlns:se="http://svg-edit.googlecode.com" data-name="Layer 1">
 <defs>
  <clipPath id="clip-path">
   <rect fill="none" height="409.6" id="svg_1" width="358.4"/>
  </clipPath>
 </defs>
 <title>Artboard 1</title>
 <g class="layer">
  <title>Layer 1</title>
  <g clip-path="url(#clip-path)" id="svg_2">
   <path d="m311.2,235.79c-5.46,-5.38 -17.56,-8.23 -36,-8.47a298.16,298.16 0 0 0 -43.27,3.17c-7.07,-4.08 -14.35,-8.52 -20.08,-13.86c-15.38,-14.37 -28.23,-34.31 -36.23,-56.24c0.52,-2.05 1,-3.85 1.38,-5.69c0,0 8.66,-49.22 6.37,-65.86a19.29,19.29 0 0 0 -1.12,-4.72l-0.75,-1.93c-2.36,-5.44 -7,-11.2 -14.23,-10.88l-4.27,-0.14l-0.12,0c-8.08,0 -14.66,4.13 -16.4,10.31c-5.25,19.37 0.17,48.36 10,85.9l-2.48,6.11c-7,17.15 -15.85,34.43 -23.63,49.66l-1,2c-8.18,16 -15.61,29.61 -22.34,41.13l-6.95,3.68c-0.5,0.27 -12.42,6.57 -15.21,8.26c-23.7,14.15 -39.41,30.21 -42,43c-0.83,4.07 -0.21,9.28 4,11.69l6.72,3.38a20.23,20.23 0 0 0 9.14,2.2c16.88,0 36.48,-21 63.48,-68.14a632.4,632.4 0 0 1 97.79,-23.35c23.7,13.35 52.86,22.62 71.26,22.62a33.15,33.15 0 0 0 8.38,-0.92a14.25,14.25 0 0 0 8.32,-5.68c3.57,-5.37 4.29,-12.77 3.33,-20.35c-0.29,-2.25 -2.09,-5 -4,-6.93m-252.23,89.88c3.08,-8.42 15.27,-25.06 33.28,-39.82c1.13,-0.92 3.92,-3.53 6.48,-6c-18.84,30.05 -31.46,42 -39.76,45.79m106.71,-245.72c5.43,0 8.52,13.68 8.77,26.5s-2.74,21.83 -6.47,28.48c-3.08,-9.86 -4.57,-25.4 -4.57,-35.56c0,0 -0.23,-19.42 2.26,-19.42m-31.82,175.13c3.78,-6.77 7.71,-13.9 11.73,-21.47a409.57,409.57 0 0 0 20.59,-44.94a148.42,148.42 0 0 0 34,42.2q2.51,2.13 5.31,4.26c-27.28,5.4 -50.86,12 -71.63,19.94m172,-1.54c-1.66,1 -6.42,1.64 -9.48,1.64c-9.88,0 -22.11,-4.52 -39.25,-11.87c6.59,-0.49 12.63,-0.74 18,-0.74c9.91,0 12.85,0 22.54,2.43s9.82,7.49 8.15,8.53m29.87,-173.67l-57.14,-57.14c-12.45,-12.45 -37.03,-22.63 -54.63,-22.63l-192,0a32.09,32.09 0 0 0 -32,32l0,345.6a32.09,32.09 0 0 0 32,32l294.4,0a32.09,32.09 0 0 0 32,-32l0,-243.2c0,-17.6 -10.18,-42.18 -22.62,-54.63m-18.1,18.1a33.9,33.9 0 0 1 3.71,4.52l-65.39,0l0,-65.39a33.78,33.78 0 0 1 4.53,3.71l57.15,57.16zm15.12,279.73a6.49,6.49 0 0 1 -6.4,6.4l-294.4,0a6.48,6.48 0 0 1 -6.4,-6.4l0,-345.6a6.48,6.48 0 0 1 6.4,-6.4l192,0a34.84,34.84 0 0 1 6.4,0.68l0,101.72l101.72,0a34.77,34.77 0 0 1 0.68,6.4l0,243.2z" fill="#22174a" id="svg_3"/>
  </g>
 </g>
</svg>