<svg id="Layer_1" data-name="Layer 1" xmlns="http://www.w3.org/2000/svg" xmlns:xlink="http://www.w3.org/1999/xlink" viewBox="0 0 360 301.78"><defs><style>.cls-1{fill:none;}.cls-2{clip-path:url(#clip-path);}</style><clipPath id="clip-path"><rect class="cls-1" x="6" y="4" width="348" height="295.86"/></clipPath></defs><title>Artboard 1</title><path d="M74.55,135.71V299.78h44.23v-178H102.24a61.16,61.16,0,0,1-27.69,14Zm0,0"/><path d="M131.61,121.75v178h41.74V121.12H131.61Zm0,0"/><g class="cls-2"><path d="M240.74,121.75v178H285V135.71a61.08,61.08,0,0,1-27.68-14Zm0,0"/><path d="M289.22,4H70.3A64.42,64.42,0,0,0,6,68.36a55.92,55.92,0,0,0,55.86,55.86,48.92,48.92,0,0,0,36.65-16.83,48.15,48.15,0,0,0,11.73-31C109.91,59,96.41,45,79.87,45c-16.73,0-30.34,14.34-30.34,32H36.71c0-24.71,19.36-44.81,43.16-44.81a41.54,41.54,0,0,1,12.72,2A44.47,44.47,0,0,1,121,63.31c4.5,14.64,1,31.18-6.75,44.08h131C237.49,94.49,234,78,238.54,63.31a44.46,44.46,0,0,1,28.39-29.2,41.66,41.66,0,0,1,12.73-2c23.79,0,43.15,20.1,43.15,44.81H310c0-17.64-13.61-32-30.33-32-16.55,0-30,14-30.33,31.41a48.2,48.2,0,0,0,11.73,31,48.94,48.94,0,0,0,36.66,16.83,55.92,55.92,0,0,0,55.86-55.86A64.43,64.43,0,0,0,289.22,4Zm0,0"/></g><path d="M186.17,121.75v178h41.75V121.12H186.17Zm0,0"/></svg>