<svg id="Layer_1" data-name="Layer 1" xmlns="http://www.w3.org/2000/svg" xmlns:xlink="http://www.w3.org/1999/xlink" viewBox="0 0 382.96 383.92"><defs><clipPath id="clip-path"><rect y="0.16" width="382.8" height="383.76" fill="none"/></clipPath><clipPath id="clip-path-2"><rect width="382.96" height="383.92" fill="none"/></clipPath></defs><title>Artboard 1</title><g clip-path="url(#clip-path)"><path d="M363.36,151.28l-26.88-4.56a152,152,0,0,0-10.8-26.08l15.84-22.16A23.59,23.59,0,0,0,339,68L315.12,44.16a23.49,23.49,0,0,0-16.72-7,23.23,23.23,0,0,0-13.68,4.4L262.48,57.44a150.18,150.18,0,0,0-27-11.12L231,19.76A23.63,23.63,0,0,0,207.6,0H173.92a23.63,23.63,0,0,0-23.36,19.76L145.92,47a147.89,147.89,0,0,0-26,11l-22-15.84a23.63,23.63,0,0,0-30.48,2.56L43.52,68.48A23.68,23.68,0,0,0,41,99l16,22.48A148.07,148.07,0,0,0,46.32,147.6l-26.56,4.48A23.64,23.64,0,0,0,0,175.44v33.68a23.63,23.63,0,0,0,19.76,23.36L47,237.12a148.24,148.24,0,0,0,11,26L42.16,285a23.59,23.59,0,0,0,2.56,30.48l23.84,23.84A23.52,23.52,0,0,0,99,341.92l22.48-16a151.31,151.31,0,0,0,25.28,10.4l4.48,26.88A23.64,23.64,0,0,0,174.56,383h33.76a23.63,23.63,0,0,0,23.36-19.76l4.56-26.88a151.57,151.57,0,0,0,26.08-10.8l22.16,15.84A23.62,23.62,0,0,0,315,338.8L338.8,315a23.68,23.68,0,0,0,2.56-30.48l-15.84-22.24a150.34,150.34,0,0,0,10.8-26.08l26.88-4.48A23.63,23.63,0,0,0,383,208.32V174.64a23.34,23.34,0,0,0-19.6-23.36m-1.84,57a2.07,2.07,0,0,1-1.76,2.08l-33.6,5.6a10.74,10.74,0,0,0-8.64,7.92,128.13,128.13,0,0,1-13.92,33.52,10.82,10.82,0,0,0,.48,11.76L323.84,297a2.18,2.18,0,0,1-.24,2.72L299.76,323.6a2,2,0,0,1-1.52.64,2,2,0,0,1-1.2-.4l-27.76-19.76a10.82,10.82,0,0,0-11.76-.48A128.1,128.1,0,0,1,224,317.52a10.62,10.62,0,0,0-7.92,8.64l-5.68,33.6a2.07,2.07,0,0,1-2.08,1.76H174.64a2.07,2.07,0,0,1-2.08-1.76l-5.6-33.6a10.74,10.74,0,0,0-7.92-8.64,133,133,0,0,1-32.8-13.44,11.08,11.08,0,0,0-5.44-1.44,10.54,10.54,0,0,0-6.24,2l-28,19.92a2.36,2.36,0,0,1-1.2.4,2.15,2.15,0,0,1-1.52-.64L60,300.48a2.16,2.16,0,0,1-.24-2.72l19.68-27.6a11,11,0,0,0,.48-11.84,126.75,126.75,0,0,1-14.08-33.44A11,11,0,0,0,57.2,217L23.36,211.2a2.07,2.07,0,0,1-1.76-2.08V175.44a2.07,2.07,0,0,1,1.76-2.08l33.36-5.6a10.82,10.82,0,0,0,8.72-8,127.8,127.8,0,0,1,13.68-33.6,10.68,10.68,0,0,0-.56-11.68l-19.92-28a2.17,2.17,0,0,1,.24-2.72L82.72,59.92a2,2,0,0,1,1.52-.64,2,2,0,0,1,1.2.4L113,79.36a11,11,0,0,0,11.84.48,126.92,126.92,0,0,1,33.44-14.08,11,11,0,0,0,7.92-8.64L172,23.28a2.07,2.07,0,0,1,2.08-1.76h33.68a2.07,2.07,0,0,1,2.08,1.76l5.6,33.36a10.81,10.81,0,0,0,8,8.72,129.88,129.88,0,0,1,34.32,14.08A10.81,10.81,0,0,0,269.52,79l27.6-19.84a2.36,2.36,0,0,1,1.2-.4,2.15,2.15,0,0,1,1.52.64L323.68,83.2a2.18,2.18,0,0,1,.24,2.72l-19.76,27.76a10.81,10.81,0,0,0-.48,11.76A128.09,128.09,0,0,1,317.6,159a10.61,10.61,0,0,0,8.64,7.92l33.6,5.68a2.08,2.08,0,0,1,1.76,2.08v33.68Z"/></g><g clip-path="url(#clip-path-2)"><path d="M191.52,108.8a82.64,82.64,0,1,0,82.64,82.64,82.69,82.69,0,0,0-82.64-82.64m0,143.68a61,61,0,1,1,61-61,61.08,61.08,0,0,1-61,61"/></g></svg>