<svg version="1.1" id="Layer_1" xmlns="http://www.w3.org/2000/svg" xmlns:xlink="http://www.w3.org/1999/xlink" x="0px" y="0px"
	 viewBox="0 0 145 144" style="enable-background:new 0 0 145 144;" xml:space="preserve">
<g>
	<g>
		<path d="M96,19.9c-21.2-21.2-55.8-21.2-77,0c-21.2,21.2-21.2,55.8,0,77c18.9,18.9,48.4,20.9,69.6,6.2c0.5,2.1,1.5,4.1,3.1,5.8
			l30.9,30.9c4.5,4.5,11.8,4.5,16.3,0c4.5-4.5,4.5-11.8,0-16.3l-30.9-30.9c-1.6-1.6-3.7-2.7-5.8-3.1C116.9,68.3,114.9,38.8,96,19.9
			L96,19.9z M86.2,87.2c-15.8,15.8-41.6,15.8-57.5,0c-15.8-15.9-15.8-41.7,0-57.5c15.8-15.8,41.6-15.8,57.5,0
			C102,45.6,102,71.3,86.2,87.2L86.2,87.2z M86.2,87.2"/>
	</g>
</g>
</svg>
