<?xml version="1.0" encoding="utf-8"?>
<svg id="master-artboard" viewBox="0 0 1400 980" version="1.1" xmlns="http://www.w3.org/2000/svg" x="0px" y="0px" style="enable-background:new 0 0 1400 980;" width="1400px" height="980px"><defs><style id="ee-google-fonts">@import url(https://fonts.googleapis.com/css?family=Fjalla+One:400|Roboto:100,100italic,300,300italic,400,400italic,500,500italic,700,700italic,900,900italic);</style></defs>

































































































<g transform="matrix(6.536819716977551, 0, 0, 6.536819716977551, 202.090439004825, 0)"><title>Artboard 1</title><path d="M26.41,49.06A25.23,25.23,0,0,0,1.26,74.21v.35A25.23,25.23,0,0,0,26.41,99.71H43.2V49.06Z" style="fill: rgb(189, 190, 192); fill-opacity: 0.1;"/><path d="M48.56,121.9a25.23,25.23,0,0,0,25.15,25.15h.35A25.22,25.22,0,0,0,99.21,121.9V104.62H48.56Z" style="fill: rgb(189, 190, 192); fill-opacity: 0.1;"/><path d="M136.57,55.59a3.27,3.27,0,1,0,0-6.54H104.48v6.54Z" style="fill: rgb(189, 190, 192); fill-opacity: 0.1;"/><path d="M143.44,66.64a3.27,3.27,0,1,0,0-6.54h-39v6.54h39Z" style="fill: rgb(189, 190, 192); fill-opacity: 0.1;"/><path d="M149.33,72.1a3.28,3.28,0,0,0-2.31-.95H104.48v6.54H147a3.27,3.27,0,0,0,2.31-5.59Z" style="fill: rgb(189, 190, 192); fill-opacity: 0.1;"/><path d="M143.44,82.19h-39v6.54h39a3.28,3.28,0,0,0,0-6.55Z" style="fill: rgb(189, 190, 192); fill-opacity: 0.1;"/><path d="M136.58,93.24h-32.1v6.55h32.09a3.27,3.27,0,0,0,2.31-5.59A3.21,3.21,0,0,0,136.58,93.24Z" style="fill: rgb(189, 190, 192); fill-opacity: 0.1;"/><path d="M55.13,14.76a3.28,3.28,0,0,0-3.27-3.28h0a3.28,3.28,0,0,0-3.27,3.28v85h6.55Z" style="fill: rgb(189, 190, 192); fill-opacity: 0.1;"/><path d="M66.14,7.89a3.27,3.27,0,0,0-6.54,0V99.72h6.54Z" style="fill: rgb(189, 190, 192); fill-opacity: 0.1;"/><path d="M77.16,4.31a3.28,3.28,0,0,0-6.55,0V99.72h6.55Z" style="fill: rgb(189, 190, 192); fill-opacity: 0.1;"/><path d="M88.17,7.89A3.28,3.28,0,0,0,84.9,4.62h0a3.25,3.25,0,0,0-2.32,1,3.29,3.29,0,0,0-1,2.31V99.72h6.54Z" style="fill: rgb(189, 190, 192); fill-opacity: 0.1;"/><path d="M99.18,14.76a3.27,3.27,0,0,0-3.27-3.28h0a3.28,3.28,0,0,0-3.27,3.28v85h6.54Z" style="fill: rgb(189, 190, 192); fill-opacity: 0.1;"/></g></svg>