<svg id="Layer_1" data-name="Layer 1" xmlns="http://www.w3.org/2000/svg" viewBox="0 0 283.89 92.74"><title>Artboard 1</title><path d="M109.34,91.9A18.93,18.93,0,0,1,92,79.43a18.27,18.27,0,0,1,11-23.32,19,19,0,0,1,15.84.88c1.38.71,1.36.75.57,2-.63,1-1,2.45-2,2.92s-2-.74-3.07-1.08c-7.07-2.22-14.69,1.68-16.62,8.56-2.11,7.53,2,14.87,9.36,16.71a12.94,12.94,0,0,0,9.51-1.29c.59-.32.82-.24,1.12.32a31.28,31.28,0,0,0,1.93,3.15c.43.6.18.8-.3,1.09a19,19,0,0,1-10,2.5" fill="#d60022"/><path d="M167,91.91a23.79,23.79,0,0,1-9.34-2c-.73-.32-.91-.63-.5-1.38a29.63,29.63,0,0,0,1.6-3.44c.26-.66.47-.59,1-.32,2.63,1.3,5.34,2.16,8.34,1.58,2-.39,3.57-1.36,4.09-3.45a5.2,5.2,0,0,0-1.69-5.45,13.68,13.68,0,0,0-3.7-2.21,22.86,22.86,0,0,1-6.67-4,9.32,9.32,0,0,1,4.1-15.82,17.86,17.86,0,0,1,12.64,1.4c.46.22.61.4.28.9-.74,1.11-1.42,2.27-2.09,3.42-.25.43-.43.52-1,.29a10.74,10.74,0,0,0-8-.65,3.83,3.83,0,0,0-1.46,6.64,14.68,14.68,0,0,0,3.61,2.36,38.59,38.59,0,0,1,6.52,3.88,9.73,9.73,0,0,1,3.6,10.74c-1,4.15-4,6.26-8,7.19a22.06,22.06,0,0,1-3.36.33" fill="#d60022"/><path d="M153,68a12.62,12.62,0,0,0-4.14-9.82,14.25,14.25,0,0,0-9.36-3.29c-8.89-.28-14.62,5.8-14.45,13.89.07,3.32,0,6.64,0,10,0,3.88,0,7.77,0,11.65,0,.66.17.83.82.81,1.55-.05,3.11-.06,4.66,0,.79,0,.91-.26.9-1,0-2.68,0-5.37,0-8.05,0-.71.13-1,.91-1q6.78.06,13.56,0c.73,0,.86.23.85.89,0,2.75,0,5.51,0,8.26,0,.65.15.84.81.81,1.59-.05,3.18,0,4.77,0,.57,0,.8-.1.79-.74,0-7.49,0-15,0-22.46m-7.11,8c-2.29,0-4.59,0-6.88,0s-4.59,0-6.88,0c-.51,0-.75-.07-.74-.67,0-2.68-.1-5.37.08-8,.2-3,1.49-5.38,4.49-6.41,3.18-1.09,6.2-.79,8.7,1.69a7.72,7.72,0,0,1,2,5.52c.07,2.4,0,4.8,0,7.19,0,.67-.28.72-.81.71" fill="#d60022"/><path d="M91.23,34.11c0-3.72,0-7.44,0-11.15a2.32,2.32,0,0,1,1.18-2.27c5.92-3.77,12.15-6.41,19.33-4.56,6.45,1.66,9.9,6.3,9.92,12.92,0,5.4-.05,10.81,0,16.21,0,1.37-.39,1.66-1.64,1.57a38.68,38.68,0,0,0-4.87,0c-1.13.07-1.45-.26-1.44-1.42,0-5.46.1-10.92-.1-16.37-.17-4.61-2.92-6.92-7.5-6.65a11,11,0,0,0-2.21.38c-4.35,1.17-4.73,1.68-4.73,6.1,0,5.46-.05,10.92,0,16.38,0,1.36-.39,1.68-1.66,1.59a33.47,33.47,0,0,0-4.87,0c-1.29.1-1.5-.4-1.47-1.56.08-3.72,0-7.43,0-11.15" fill="#070130"/><path d="M219,34c0-3.66.06-7.32,0-11a2.45,2.45,0,0,1,1.25-2.41c5.94-3.73,12.17-6.37,19.35-4.49,6.35,1.66,9.81,6.3,9.83,12.82,0,5.46,0,10.92,0,16.38,0,1.28-.38,1.55-1.55,1.48a43.42,43.42,0,0,0-5.05,0c-1.07.06-1.36-.25-1.35-1.33.06-4.88,0-9.76,0-14.64a14.54,14.54,0,0,0-.34-3.62c-1-3.87-4.3-5.62-8.57-4.73a14.28,14.28,0,0,0-1.5.42c-4,1.3-4.15,1.49-4.15,5.68,0,5.52-.05,11,0,16.55,0,1.43-.43,1.77-1.75,1.67a25.71,25.71,0,0,0-4.53,0C219.2,47,219,46.37,219,45c.1-3.66,0-7.32,0-11" fill="#070130"/><path d="M156,29.12V40.27a1.86,1.86,0,0,1-.46,1.58c-4.65,4.43-15.38,7.87-22.19,4.66-4.92-2.32-7.63-6.12-7.73-11.57-.1-5.69,0-11.38-.05-17.07,0-1,.19-1.45,1.32-1.38a46.69,46.69,0,0,0,5.22,0c1.11-.06,1.47.23,1.45,1.41-.07,4.88,0,9.76,0,14.63a15.23,15.23,0,0,0,.2,3.12c.93,4.31,4.14,6.18,8.66,5.12a15.25,15.25,0,0,0,1.65-.52c3.76-1.35,4-1.75,4-5.67,0-5.58,0-11.15,0-16.73,0-1,.21-1.44,1.33-1.37a41.19,41.19,0,0,0,5.22,0c1.25-.08,1.4.44,1.39,1.5-.05,3.71,0,7.43,0,11.15" fill="#070130"/><path d="M191.81,47.84A19.26,19.26,0,0,1,181.55,45c-.75-.45-1.15-.9-.5-1.72a4.14,4.14,0,0,0,.31-.62c.65-1.22,1-2.93,2-3.53s2.11,1.05,3.33,1.45a12.63,12.63,0,0,0,5.3.62,3.1,3.1,0,0,0,3.05-2.6,2.9,2.9,0,0,0-1.75-3.41c-1.44-.73-2.93-1.37-4.37-2.09a12.45,12.45,0,0,1-5.55-4.57c-2.84-4.76-.48-10.68,5-12.4a17.67,17.67,0,0,1,12.69,1c.9.39,1.24.83.54,1.79s-1.12,2.62-2.1,3.33-2.22-.6-3.43-.77a8.31,8.31,0,0,0-4.11.14,2.59,2.59,0,0,0-.93,4.46,10.87,10.87,0,0,0,2.78,1.76c1.33.69,2.69,1.34,4,2,3.57,1.89,5.43,4.86,5.11,8.91-.33,4.24-3,6.73-6.78,8.21a10.85,10.85,0,0,1-4.41.75" fill="#070130"/><path d="M160,31.68c0-4.59,0-9.17,0-13.76,0-1,.21-1.45,1.33-1.38a30.33,30.33,0,0,0,4.7,0c1.57-.14,2.22.34,1.95,1.94-.06.32-.06.89.1,1,.47.23.65-.33.88-.6a8.86,8.86,0,0,1,11.29-2.27c.81.41,1.07.76.51,1.66a46,46,0,0,0-2.26,4.29c-.36.72-.59,1-1.52.55a6.28,6.28,0,0,0-9,5.75c0,5.52,0,11,0,16.55,0,1.17-.34,1.48-1.46,1.42a44.85,44.85,0,0,0-5.22,0c-1.14.07-1.32-.35-1.31-1.37.05-4.59,0-9.17,0-13.76" fill="#070130"/><path d="M207,31.57c0-4.58,0-9.16,0-13.74,0-1.06.24-1.41,1.34-1.35,1.85.1,3.71.06,5.56,0,.82,0,1.08.2,1.08,1.06q0,14.09,0,28.17c0,.83-.24,1.11-1.08,1.09-1.85-.05-3.71-.08-5.56,0-1.07.06-1.36-.24-1.34-1.33.07-4.64,0-9.28,0-13.91" fill="#070130"/><path d="M278.3,17.35a17.78,17.78,0,0,0-1.77-.71c-11.87-4.16-25.43,3.1-23.77,17.54,1,8.77,8.47,14.53,17.17,13a17.26,17.26,0,0,0,5-1.85c.3-.16.62-.67.88.1,1.25,3.75-1.45,8.38-5.43,9.38-3.49.87-6.76.1-10-1.11-1.35-.5-2.78-2.19-3.83-1.59S255,54.72,254.21,56c-.61,1-.41,1.48.58,2,4.86,2.55,10,4.11,15.5,3.67,8.15-.65,13.39-6.26,13.49-14.4,0-4,0-8,0-12,0-3.19.06-6.42.1-9.57,0-4.48-1.9-6.61-5.59-8.37m-2.43,8.57c-.12,1.73,0,3.48,0,5.22s-.07,3.49,0,5.22a2.4,2.4,0,0,1-1.16,2.33c-3,2-6.31,2.76-9.67,1.15-3.6-1.72-4.61-5.08-4.48-8.74a9.06,9.06,0,0,1,13.77-7.74,2.43,2.43,0,0,1,1.55,2.56" fill="#070130"/><path d="M210.82,0a5.49,5.49,0,1,0,5.49,5.49A5.49,5.49,0,0,0,210.82,0" fill="#070130" fill-rule="evenodd"/><path d="M77.79,13.64H3.6A3.6,3.6,0,0,0,0,17.24V89.14a3.6,3.6,0,0,0,3.6,3.6H77.79a3.6,3.6,0,0,0,3.6-3.6V17.24a3.6,3.6,0,0,0-3.6-3.6M54.51,42h14a1.43,1.43,0,1,1,0,2.86h-14Zm0,4.83h17a1.43,1.43,0,1,1,0,2.86h-17ZM49.33,27a1.43,1.43,0,0,1,1.43-1.43h0A1.43,1.43,0,0,1,52.19,27V64.15H49.33Zm-4.4-4a1.42,1.42,0,0,1,1-.42h0A1.43,1.43,0,0,1,47.38,24V64.15H44.52V24a1.42,1.42,0,0,1,.42-1m-3.81-2a1.43,1.43,0,0,1,1.43,1.43V64.15H39.7V22.44A1.43,1.43,0,0,1,41.13,21m-6.25,3a1.43,1.43,0,0,1,2.86,0V64.15H34.89Zm-4.81,3a1.43,1.43,0,0,1,1.43-1.43h0A1.43,1.43,0,0,1,32.93,27V64.15H30.07ZM27.72,64.15H20.38a11,11,0,0,1-11-11V53a11,11,0,0,1,11-11h7.34Zm24.49,9.7a11,11,0,0,1-11,11h-.15a11,11,0,0,1-11-11V66.29H52.21Zm16.33-9.67h-14V61.32h14a1.43,1.43,0,0,1,0,2.86m4-5.25a1.43,1.43,0,0,1-1,.42h-17V56.49h17a1.43,1.43,0,0,1,1,2.44m.56-4.41H54.51V51.66h18.6a1.43,1.43,0,0,1,0,2.86" fill="#d60022"/></svg>